<?xml version="1.0" encoding="utf-8"?>
<!-- Generator: Adobe Illustrator 16.0.0, SVG Export Plug-In . SVG Version: 6.00 Build 0)  -->
<!DOCTYPE svg PUBLIC "-//W3C//DTD SVG 1.1//EN" "http://www.w3.org/Graphics/SVG/1.1/DTD/svg11.dtd">
<svg version="1.1" id="illsky" xmlns="http://www.w3.org/2000/svg" xmlns:xlink="http://www.w3.org/1999/xlink" x="0px" y="0px"
	 width="1254.288px" height="288.167px" viewBox="0 0 1254.288 288.167" enable-background="new 0 0 1254.288 288.167"
	 xml:space="preserve">
<g id="clipgroup">
	<defs>
		<polygon id="mask" points="1246.288,117.167 1246.288,45.167 1236.288,45.167 1236.288,34.167 1100.288,34.167 1100.288,47.167 
			1096.288,47.167 1096.288,98.916 1088.288,107.167 1088.288,115.583 1083.288,120.167 1083.288,134.167 1076.288,134.167 
			1076.288,121.167 1055.288,121.167 1055.288,98.167 1021.288,98.167 1021.288,134.167 1015.288,134.167 1015.288,98.167 
			993.288,98.167 993.288,54.167 986.288,54.167 970.954,51.25 961.288,60.167 961.288,91.167 952.288,135.167 927.288,135.167 
			927.288,95.167 911.288,95.167 911.288,76.167 908.288,76.167 908.288,94.167 905.288,94.167 905.288,76.167 902.288,76.167 
			902.288,87.833 883.288,92.167 883.288,111.167 878.288,114.167 878.288,141.167 862.288,132.167 862.288,108.167 
			847.288,108.167 847.288,113.167 831.288,113.167 831.288,102.167 821.705,102.167 817.288,98.167 787.288,98.167 753.288,98.167 
			753.288,150.167 750.288,150.167 750.288,117.167 742.288,117.167 742.288,45.167 732.288,45.167 732.288,34.167 686.288,34.167 
			686.288,47.167 682.288,47.167 682.288,98.916 674.288,107.167 674.288,115.583 669.288,120.167 669.288,134.167 662.288,134.167 
			662.288,121.167 641.288,121.167 641.288,98.167 607.288,98.167 607.288,112.167 601.288,112.167 601.288,98.167 579.288,98.167 
			579.288,54.167 572.289,54.167 564.58,0 556.955,51.25 547.288,60.167 547.288,91.167 538.288,135.167 513.288,135.167 
			513.288,95.167 497.288,95.167 497.288,76.167 494.288,76.167 494.288,94.167 491.288,94.167 491.288,76.167 488.288,76.167 
			488.288,87.833 469.288,92.167 469.288,111.167 464.288,114.167 464.288,141.167 448.288,132.167 448.288,108.167 
			433.288,108.167 433.288,113.167 417.288,113.167 417.288,102.167 407.705,102.167 403.288,98.167 373.288,98.167 339.288,98.167 
			339.288,150.167 326.288,150.167 326.288,134.167 323.288,134.167 323.288,126.167 317.288,126.167 305.288,126.167 
			305.288,118.167 303.288,118.167 303.288,126.167 287.288,126.167 287.288,118.167 280.288,118.167 280.288,115.167 
			274.288,115.167 274.288,125.167 260.288,125.167 260.288,140.167 249.288,140.167 249.288,136.167 209.288,136.167 
			209.288,112.167 187.288,112.167 187.288,164.167 186.288,164.167 185.288,125.167 181.288,125.167 181.288,103.167 
			139.288,103.167 139.288,121.834 137.455,125.917 141.288,166.167 101.288,166.167 101.288,159.167 97.621,159.167 
			97.288,166.167 66.288,166.167 66.288,138.167 60.288,138.167 60.288,167.167 7.288,167.167 7.288,173.167 62.954,173.167 
			63.288,182.167 58.954,182.167 52.288,190.167 39.288,190.167 39.288,194.167 32.288,194.167 32.288,197.167 8.288,197.167 
			0,288.167 414,288.167 750.288,288.167 1254.288,288.167 1254.288,117.167 		"/>
	</defs>
	<clipPath id="mask_1_">
		<use xlink:href="#mask"  overflow="visible"/>
	</clipPath>
	<path id="highlight" clip-path="url(#mask_1_)" fill="#29B471" d="M842.523-15.833l19.42,369h-78.07l19.421-369H842.523z
		 M895.346-15.833l19.421,369h66.806l-38.841-369H895.346z M-140.712,353.167h40.625l30.952-369h-71.577V353.167z M1133.872-15.833
		l-19.421,369h78.07l-19.421-369H1133.872z M1023.288,353.167h24.745l19.42-369h-44.165V353.167z M692.288,351.274L653.645-15.833
		h-47.386l19.42,369h91.776l19.42-369h-44.588V351.274z M1273.31-15.833h-47.387l19.421,369h66.807L1273.31-15.833z M36.719-15.833
		l-30.952,369h124.427l-30.952-369H36.719z M514.207-15.833l-19.421,369h78.07l-19.42-369H514.207z M403.288,353.167h25.081
		l19.42-369h-44.5V353.167z M183.431-15.833l30.953,369h106.474l-61.903-369H183.431z"/>
	<path id="light" clip-path="url(#mask_1_)" fill="#F7F7F7" d="M983.904-15.833l38.841,369h-44.278l-38.841-369H983.904z
		 M839.804-15.833l19.421,369h44.278l-19.421-369H839.804z M720.785,230.868L694.817-15.833h-44.278l38.84,369h69.248l19.421-369
		h-44.279L720.785,230.868z M1044.925,353.167h44.279l19.42-369h-44.279L1044.925,353.167z M1170.381-15.833l19.42,369h44.279
		l-19.421-369H1170.381z M-105.04,353.167h70.57l30.952-369h-70.57L-105.04,353.167z M1314.481-15.833h-44.278l38.841,369h44.279
		L1314.481-15.833z M254.001-15.833l61.904,369h70.57l-61.904-369H254.001z M550.716-15.833l19.421,369h44.278l-19.42-369H550.716z
		 M94.909-15.833l30.952,369h70.571l-30.953-369H94.909z M425.261,353.167h44.279l19.42-369h-44.279L425.261,353.167z"/>
	<path id="dark" clip-path="url(#mask_1_)" fill="#4F4F4F" d="M1104.352-15.833h32.238l-19.421,369h-32.238L1104.352-15.833z
		 M979.631-15.833l38.841,369h32.237l-23.305-369H979.631z M1357.983-15.833h-47.774l38.841,369h32.238L1357.983-15.833z
		 M881.364-15.833l19.42,369h14.76l-19.42-369H881.364z M1211.942-15.833l19.419,369h14.761l-19.421-369H1211.942z M317.762-15.833
		l61.903,369h51.38l-37.143-369H317.762z M-41.279,353.167h51.379l30.952-369h-51.38L-41.279,353.167z M161.146-15.833l30.952,369
		h23.523l-30.952-369H161.146z M465.267,353.167h32.238l19.42-369h-32.238L465.267,353.167z M757.659,290.384l-19.34-306.217
		h-47.775l38.842,369h57.207l19.42-369h-32.237L757.659,290.384z M592.277-15.833l19.42,369h14.76l-19.421-369H592.277z"/>
</g>
</svg>
