<?xml version="1.0" encoding="utf-8"?>
<!-- Generator: Adobe Illustrator 16.0.0, SVG Export Plug-In . SVG Version: 6.00 Build 0)  -->
<!DOCTYPE svg PUBLIC "-//W3C//DTD SVG 1.1//EN" "http://www.w3.org/Graphics/SVG/1.1/DTD/svg11.dtd">
<svg version="1.1" id="pin" xmlns="http://www.w3.org/2000/svg" xmlns:xlink="http://www.w3.org/1999/xlink" x="0px" y="0px"
	width="36px" height="52px" viewBox="0 0 36 52" enable-background="new 0 0 36 52" xml:space="preserve">
	<circle id="white-hole" fill="#FFFFFF" cx="17.5" cy="17.499" r="10.5"/>
	<path id="highlight" fill="#1791cf" d="M28.829,6.561C25.688,3.503,21.922,2,17.529,2C13.123,2,9.347,3.51,6.2,6.586S1.508,13.354,1.508,17.66S3.053,25.658,6.2,28.678l1.144,1.175c1.545,1.565,3.891,4.865,6.123,8.501S17.414,47.302,17.414,52c-0.057-2.349,0.4-4.754,1.259-7.271s1.774-4.586,2.747-6.32c0.973-1.733,2.117-3.411,3.433-5.146c1.315-1.733,2.231-2.852,2.747-3.355l1.201-1.286c3.146-3.021,4.691-6.712,4.691-11.018C33.492,13.312,31.955,9.631,28.829,6.561z M28.801,6.53c0.01,0.01,0.019,0.021,0.028,0.031c0.01,0.009,0.02,0.016,0.028,0.025L28.801,6.53z M25.5,17.499c0,4.419-3.582,8.001-8,8.001c-4.418,0-8-3.582-8-8.001c0-4.418,3.582-8,8-8C21.918,9.499,25.5,13.081,25.5,17.499z"/>
</svg>
