<?xml version="1.0" encoding="utf-8"?>
<!-- Generator: Adobe Illustrator 16.0.0, SVG Export Plug-In . SVG Version: 6.00 Build 0)  -->
<!DOCTYPE svg PUBLIC "-//W3C//DTD SVG 1.1//EN" "http://www.w3.org/Graphics/SVG/1.1/DTD/svg11.dtd">
<svg version="1.1" id="Layer_1" xmlns="http://www.w3.org/2000/svg" xmlns:xlink="http://www.w3.org/1999/xlink" x="0px" y="0px"
	 width="4445.367px" height="362.739px" viewBox="0 0 4445.367 362.739" enable-background="new 0 0 4445.367 362.739"
	 xml:space="preserve">
<path fill="#29B471" d="M413.46,179.479c-0.86,0.53-1.729,1.061-2.601,1.58c-0.17,0.1-0.33,0.21-0.5,0.31h-0.01
	C253.49,144.829,0,0,0,0c0,40.819,7.39,79.899,20.92,116c0,0,136.88,51.199,264.97,90.069c-113.47-12.37-242.579-45.42-244.59-45.93
	c18.06,32.6,41.47,61.81,69.05,86.47c0,0,95.061,12.811,153.881,16.04c-49.121,0.91-128.521,4.5-128.521,4.5
	c16.69,12.2,34.56,22.88,53.42,31.83c-66.05,30.35-107.69,45.25-107.69,45.25c34.211,11.97,70.99,18.51,109.291,18.51
	c126.02,0,240.389-38.06,324.84-100.09c0.41-0.309,0.879-0.66,1.4-1.03c11.648-8.329,48.6-29.64,48.6-6.35
	c3.51-14.62,4.209-27.37,2.65-38.38c-9.33-65.65-99.191-69.49-153.701-38.04c55.43-32.39,143.09-33.04,170.801,19.15
	c48.17-56.909,76.139-124.909,76.139-198C579.34,70.979,493.49,130.63,413.779,179.279C413.67,179.35,413.57,179.409,413.46,179.479
	z"/>
<path fill="#383838" d="M1092.603,56.467H1281.4l-1.746,50h-131.998l-1.971,56.398h129.199l-1.746,50H1143.94l-3.855,110.397h-56.8
	L1092.603,56.467z M1453.602,56.467h-56.8l-9.317,266.796h169.598l1.746-49.999H1446.03L1453.602,56.467z M1928.77,190.064
	c-2.807,80.399-63.617,137.998-144.416,137.998c-80.398,0-137.188-57.599-134.379-137.998
	c2.807-80.398,63.618-137.997,144.017-137.997C1874.79,52.067,1931.578,109.666,1928.77,190.064z M1792.231,102.467
	c-49.199,0-82.112,37.6-83.858,87.598c-1.731,49.6,28.541,87.6,77.74,87.6s82.525-38,84.258-87.6
	C1872.117,140.066,1841.431,102.467,1792.231,102.467z M2174.751,102.467c27.6,0,50.999,17.199,61.444,38.799l49.638-24
	c-17.641-33.199-50.523-65.198-109.322-65.198c-79.999,0-143.953,55.999-146.817,137.997c-2.863,82,57.181,137.998,137.18,137.998
	c58.799,0,93.529-32.398,113.89-65.598l-47.976-23.601c-11.968,22-36.555,38.8-64.154,38.8c-48.399,0-82.299-37.199-80.539-87.6
	C2089.854,139.666,2126.352,102.467,2174.751,102.467z M2547.476,56.467l-98.562,119.198l4.163-119.198h-56.799l-9.317,266.796
	h56.799l2.864-81.999l21.666-24.799l77.068,106.798h69.999l-108.253-141.597l110.371-125.199H2547.476z M2721.719,145.612
	l-6.204,177.65h56.799l7.499-214.712C2760.822,121.121,2741.45,133.48,2721.719,145.612z M2781.631,56.467h-56.799l-2.273,65.097
	c19.757-12.322,39.132-24.876,58.113-37.639L2781.631,56.467z M3086.571,224.064L2968.826,56.467h-58.399l-9.317,266.796h56.8
	l6.077-173.997l121.12,173.997h54.8l9.317-266.796h-56.8L3086.571,224.064z M3380.534,261.664l-66.833-205.197h-64.799
	l93.881,266.796h71.199l112.115-266.796h-64.799L3380.534,261.664z M3616.42,323.263h188.797l1.746-49.999h-131.997l2.109-60.398
	h129.197l1.746-50h-129.197l1.97-56.398h131.997l1.746-50h-188.797L3616.42,323.263z M3982.005,128.866
	c0.559-16,14.535-26.8,38.935-26.8c27.2,0,55.679,9.2,76.58,29.199l33.053-41.6c-25.549-24.398-60.301-37.199-102.7-37.199
	c-62.799,0-102.483,36.8-104.034,81.199c-3.506,100.398,151.224,67.999,149.575,115.198c-0.531,15.2-16.234,29.6-47.434,29.6
	c-36.8,0-65.426-16.399-83.541-35.999l-32.309,43.199c23.92,25.199,60.119,42.398,111.318,42.398
	c71.999,0,108.083-36.799,109.787-85.598C4134.713,142.865,3980.524,171.266,3982.005,128.866z M4232.57,56.467l-1.746,50h77.999
	l-7.571,216.796h57.199l7.571-216.796h77.599l1.746-50H4232.57z"/>
</svg>
