<?xml version="1.0" standalone="no"?>
<!DOCTYPE svg PUBLIC "-//W3C//DTD SVG 1.1//EN" "http://www.w3.org/Graphics/SVG/1.1/DTD/svg11.dtd" >
<svg xmlns="http://www.w3.org/2000/svg">
<metadata>
This is a custom SVG font generated by IcoMoon.
<iconset grid="16"></iconset>
</metadata>
<defs>
<font id="icons" horiz-adv-x="512" >
<font-face units-per-em="512" ascent="480" descent="-32" />
<missing-glyph horiz-adv-x="512" />
<glyph unicode="&#xe004;" d="M 192.00,480.00L 224.00,480.00L 224.00,416.00L 192.00,416.00zM 224.00,480.00L 288.00,480.00L 288.00,448.00L 224.00,448.00zM 288.00,480.00L 320.00,480.00L 320.00,416.00L 288.00,416.00zM 64.00,384.00L 448.00,384.00L 448.00,320.00L 64.00,320.00zM 96.00,288.00L 416.00,288.00L 416.00-32.00L 96.00-32.00z"  />
<glyph unicode="&#xe005;" d="M 480.00,287.515C 480.00,288.00, 192.00,288.00, 192.00,288.00l0.00-128.00 l 115.20,0.00 C 307.20,160.00, 480.00,159.031, 480.00,287.515z
	M 192.00,384.00L0.00,223.872L 192.00,64.00 z"  />
<glyph unicode="&#xe006;" d="M 192.00,448.00L 320.00,448.00L 320.00,0.00L 192.00,0.00zM 32.00,288.00L 480.00,288.00L 480.00,160.00L 32.00,160.00z"  />
<glyph unicode="&#xe007;" d="M 275.412,212.523c-37.211-37.204, 10.887-72.066, 14.197-115.429
		c 25.701,6.16, 46.674,19.403, 48.091,20.82c-17.662-31.845-26.788-42.889-50.457-57.616c-42.61-26.514-151.221-11.618-151.221-13.035
		c 69.696-69.694, 319.157-69.694, 341.872,50.139C 500.59,217.25, 333.758,270.862, 275.412,212.523z M 304.268,301.145
		c-66.539,5.513-86.564-23.653-92.402-39.268c 12.612-12.612, 22.075-21.127, 26.332-22.706c 19.396-7.097, 100.763,9.78, 99.499,29.175
		C 337.547,272.601, 324.457,284.743, 304.268,301.145z M 196.885,277.492c 17.662,31.691, 53.62,41.938, 79.636,45.095
		C 195.783,383.612, 62.537,472.226, 49.772,468.761C 36.052,465.134, 136.336,341.982, 196.885,277.492z"  />
<glyph unicode="&#xe008;" d="M0.00,480.00L 512.00,480.00L 512.00,352.00L0.00,352.00zM0.00,352.00L 32.00,352.00L 32.00-32.00L0.00-32.00zM 480.00,352.00L 512.00,352.00L 512.00-32.00L 480.00-32.00zM 32.00,0.00L 480.00,0.00L 480.00-32.00L 32.00-32.00zM 64.00,320.00L 160.00,320.00L 160.00,288.00L 64.00,288.00zM 64.00,256.00L 96.00,256.00L 96.00,224.00L 64.00,224.00zM 64.00,192.00L 160.00,192.00L 160.00,160.00L 64.00,160.00zM 64.00,128.00L 96.00,128.00L 96.00,96.00L 64.00,96.00zM 64.00,64.00L 160.00,64.00L 160.00,32.00L 64.00,32.00zM 351.998,64.00L 447.998,64.00L 447.998,32.00L 351.998,32.00zM 415.998,128.00L 447.998,128.00L 447.998,64.00L 415.998,64.00z"  />
<glyph unicode="&#xe009;" d="M 256.00,480.00L 64.00,480.00L 64.00-32.00L 448.00-32.00L 448.00,288.00L 256.00,288.00 		zM 288.00,320.00L 448.00,320.00L 288.00,480.00 z"  />
<glyph unicode="&#xe000;" d="M 122.94,327.931L 122.94,61.813 l 38.018,0.00 l0.00-38.018 c0.00-20.903, 17.106-38.018, 38.018-38.018
	s 38.016,17.115, 38.016,38.018L 236.992,61.813 l 38.018,0.00 l0.00-38.018 c0.00-20.903, 17.115-38.018, 38.018-38.018c 20.901,0.00, 38.018,17.115, 38.018,38.018L 351.045,61.813 
	l 38.018,0.00 L 389.063,327.931 L 122.94,327.931 z M 436.581,327.931c-15.78,0.00-28.512-12.734-28.512-28.514l0.00-114.05 c0.00-15.78, 12.732-28.514, 28.512-28.514
	c 15.778,0.00, 28.512,12.734, 28.512,28.514l0.00,114.05 C 465.093,315.196, 452.359,327.931, 436.581,327.931z M 75.419,327.931
	c-15.778,0.00-28.514-12.734-28.514-28.514l0.00-114.05 c0.00-15.78, 12.734-28.514, 28.514-28.514s 28.514,12.734, 28.514,28.514l0.00,114.05 
	C 103.932,315.196, 91.198,327.931, 75.419,327.931z M 179.966,384.958c0.00,10.45, 8.556,19.008, 19.008,19.008
	c 10.45,0.00, 19.008-8.558, 19.008-19.008c0.00-10.452-8.558-19.008-19.008-19.008C 188.523,365.948, 179.966,374.507, 179.966,384.958z M 256.00,460.992
	c-30.036,0.00-57.591-9.884-79.84-26.61L 141.948,480.00L 122.94,480.00 l 41.444-55.317C 143.276,404.532, 128.638,377.356, 124.267,346.94l 263.456,0.00 
	c-4.567,31.938-20.345,60.071-43.326,80.601l 44.663,33.451L 389.06,480.00 l-57.212-42.77C 310.352,452.249, 284.329,460.992, 256.00,460.992z
	 M 294.018,384.958c0.00,10.45, 8.556,19.008, 19.008,19.008s 19.008-8.558, 19.008-19.008c0.00-10.452-8.556-19.008-19.008-19.008
	S 294.018,374.507, 294.018,384.958z"  />
<glyph unicode="&#xe001;" d="M 76.985,401.10c-14.919-29.836-29.836-59.671-44.754-89.508
	c 36.667,0.00, 83.168-7.876, 114.628,13.147c 22.16,14.807, 26.197,41.84, 4.91,59.557C 128.667,403.522, 101.648,397.14, 76.985,401.10z
	 M 233.623,401.10c-14.919-29.836-29.836-59.671-44.754-89.508c 36.667,0.00, 83.168-7.876, 114.628,13.147
	c 22.162,14.807, 26.197,41.84, 4.91,59.557C 285.305,403.522, 258.288,397.14, 233.623,401.10z M 76.985,266.837
	c-14.919-29.836-29.836-59.671-44.754-89.508c 36.667,0.00, 83.168-7.876, 114.628,13.147c 22.162,14.807, 26.197,41.84, 4.91,59.557
	C 128.667,269.26, 101.648,262.878, 76.985,266.837z M 233.623,266.837c-14.919-29.836-29.836-59.671-44.754-89.508
	c 36.667,0.00, 83.168-7.876, 114.628,13.147c 22.162,14.807, 26.197,41.84, 4.91,59.557C 285.305,269.26, 258.288,262.878, 233.623,266.837z
	 M 390.26,333.968c-14.917-29.836-29.835-59.673-44.754-89.508c 36.668,0.00, 83.168-7.876, 114.629,13.147
	c 22.162,14.807, 26.197,41.84, 4.91,59.557C 441.945,336.391, 414.926,330.011, 390.26,333.968z M 233.623,132.576
	c-14.919-29.835-29.836-59.671-44.754-89.508c 36.667,0.00, 83.168-7.876, 114.628,13.147c 22.162,14.807, 26.197,41.838, 4.91,59.556
	C 285.303,134.999, 258.288,128.617, 233.623,132.576z M 390.26,199.705c-14.917-29.836-29.835-59.671-44.754-89.508
	c 36.668,0.00, 83.168-7.876, 114.629,13.147c 22.162,14.809, 26.199,41.84, 4.91,59.557C 441.945,202.128, 414.926,195.746, 390.26,199.705z"  />
<glyph unicode="&#xe002;" d="M 135.62,163.808c 51.168,0.00, 95.708-43.936, 118.574-108.946l 1.808-5.115l 1.499,5.115
	c 23.173,65.01, 67.714,108.946, 118.884,108.946c 61.394,0.00, 113.148-63.495, 129.71-150.475l 5.717,0.00 l-135.428,421.333L 256.00,59.975L 135.62,434.667
	l-135.429-421.333l 5.716,0.00 C 22.469,100.313, 74.224,163.808, 135.62,163.808z M 254.194,54.86l-13.241-41.527l 5.716,0.00 
	c 2.409,12.636, 5.422,24.981, 9.332,36.412L 254.194,54.86z M 271.051,13.333l-13.55,41.527L 256.00,49.746
	c 3.909-11.433, 6.921-23.776, 9.332-36.412L 271.051,13.333 z"  />
<glyph unicode="&#xe003;" d="M 32.00,224.00c0.00-141.404, 100.297-256.00, 224.00-256.00c 123.716,0.00, 224.00,114.596, 224.00,256.00S 379.716,480.00, 256.00,480.00
	C 132.297,480.00, 32.00,365.404, 32.00,224.00z M 133.792,224.00c0.00,119.714, 54.759,216.50, 122.208,216.50c 67.447,0.00, 122.208-96.786, 122.208-216.50
	c0.00-119.716-54.761-216.50-122.208-216.50C 188.551,7.50, 133.792,104.284, 133.792,224.00z"  />
<glyph unicode="&#xe00a;" d="M 297.481,195.556l 56.889,94.814l-94.814-56.889c-20.86,0.00-37.925-17.065-37.925-37.925
	c0.00-6.26, 1.518-12.334, 4.176-17.444L 145.778,81.778l 96.139,80.222c 5.316-2.852, 11.38-4.37, 17.639-4.37
	C 280.407,157.63, 297.481,174.704, 297.481,195.556z M 32.00,195.556c0.00-125.723, 101.833-227.556, 227.556-227.556s 227.556,101.833, 227.556,227.556S 385.278,423.111, 259.556,423.111
	c-49.49,0.00-95.38-15.925-132.741-42.852l 2.91,2.062L 96.667,415.333c 7.01,6.834, 11.186,16.315, 11.186,26.741
	C 107.852,462.935, 90.788,480.00, 69.925,480.00S 32.00,462.935, 32.00,442.075s 17.065-37.925, 37.925-37.925c 5.50,0.00, 10.805,1.14, 15.547,3.221l 33.186-33.186
	C 65.945,332.658, 32.00,267.991, 32.00,195.556z M 88.889,195.556c0.00,94.251, 76.416,170.667, 170.667,170.667c 94.26,0.00, 170.667-76.416, 170.667-170.667c0.00-94.26-76.407-170.667-170.667-170.667
	C 165.305,24.889, 88.889,101.296, 88.889,195.556z M 50.964,461.036l 18.964,0.00 L 88.889,461.036 l0.00-18.964 L 88.889,423.111 L 69.925,423.111 L 50.964,423.111 L 50.964,442.075 L 50.964,461.036 z"  />
<glyph unicode="&#xe00b;" d="M0.00,454.681L0.00,252.444 l 120.471,25.319L 240.94,252.444L 240.94,454.681 L 120.471,480.00L0.00,454.681z M 512.00,249.319
	L 512.00,451.556 l-120.469-25.319L 271.06,451.556l0.00-202.236 L 391.531,224.00L 512.00,249.319z M 512.00-6.681L 512.00,195.556 l-120.469-25.319L 271.06,195.556l0.00-202.236 L 391.531-32.00
	L 512.00-6.681z M0.00,198.683l0.00-202.236 l 120.471,25.319l 120.471-25.319L 240.942,198.683 L 120.471,224.00L0.00,198.683z"  />
<glyph unicode="&#xe00c;" d="M0.00,416.00l0.00-352.00 l 512.00,0.00 L 512.00,416.00 L0.00,416.00 z M 480.00,96.00L 32.00,96.00 L 32.00,384.00 l 448.00,0.00 L 480.00,96.00 zM 64.00,352.00L 64.00,256.00L 160.00,352.00 			zM 224.00,64.00L 224.00,32.00L 160.00,32.00L 160.00,0.00L 352.00,0.00L 352.00,32.00L 288.00,32.00L 288.00,64.00 	z"  />
<glyph unicode="&#xe00d;" d="M 416.64,480.00L 95.36,480.00 C 78.039,480.00, 64.00,465.961, 64.00,448.64L 64.00-0.64 
			c0.00-17.319, 14.039-31.36, 31.36-31.36L 416.64-32.00 c 17.319,0.00, 31.36,14.039, 31.36,31.36L 448.00,448.64 C 448.00,465.961, 433.961,480.00, 416.64,480.00z M 288.00,0.00l-64.00,0.00 l0.00,32.00 
			l 64.00,0.00 L 288.00,0.00 z M 416.00,64.00L 96.00,64.00 L 96.00,448.00 l 320.00,0.00 L 416.00,64.00 z"  />
<glyph unicode="&#xe00f;" d="M 256.00,407.045c 101.90,0.00, 184.325-81.865, 184.325-183.045L 384.00,224.00 l 64.00-101.689l 64.00,101.689l-51.20,0.00 
	c0.00,112.364-91.65,203.378-204.80,203.378L 256.00,407.045 z M 51.20,224.00c0.00-112.364, 91.65-203.378, 204.80-203.378l0.00,20.334 
	c-101.888,0.00-184.325,81.852-184.325,183.045L 128.00,224.002 L 64.00,325.689L0.00,224.00L 51.20,224.00 z"  />
<glyph unicode="&#xe010;" d="M 332.798,480.00l0.00-96.00 L 160.512,384.00 C 142.556,384.00, 128.00,369.444, 128.00,351.488l0.00-350.976 
			C 128.00-17.444, 142.556-32.00, 160.512-32.00l 190.976,0.00 c 17.957,0.00, 32.512,14.556, 32.512,32.512L 384.00,320.00 L 384.00,351.488 L 384.00,480.00 L 332.798,480.00 z M 192.00,0.00L 160.00,0.00 l0.00,32.00 l 32.00,0.00 L 192.00,0.00 z
			 M 192.00,64.00L 160.00,64.00 l0.00,32.00 l 32.00,0.00 L 192.00,64.00 z M 192.00,128.00L 160.00,128.00 l0.00,32.00 l 32.00,0.00 L 192.00,128.00 z M 288.00,0.00l-64.00,0.00 l0.00,32.00 l 64.00,0.00 L 288.00,0.00 z M 288.00,64.00l-64.00,0.00 l0.00,32.00 l 64.00,0.00 L 288.00,64.00 z M 288.00,128.00l-64.00,0.00 l0.00,32.00 l 64.00,0.00 L 288.00,128.00 z
			 M 352.00,0.00l-32.00,0.00 l0.00,32.00 l 32.00,0.00 L 352.00,0.00 z M 352.00,64.00l-32.00,0.00 l0.00,32.00 l 32.00,0.00 L 352.00,64.00 z M 352.00,128.00l-32.00,0.00 l0.00,32.00 l 32.00,0.00 L 352.00,128.00 z M 352.00,192.00L 160.00,192.00 L 160.00,352.00 l 192.00,0.00 L 352.00,192.00 z"  />
<glyph unicode="&#xe011;" d="M 479.488,447.492L 32.512,447.492 C 14.556,447.492,0.00,432.935,0.00,414.98l0.00-286.468 C0.00,110.556, 14.556,96.00, 32.512,96.00l 158.325,0.00 L 128.00,0.00l 256.00,0.00 
			l-62.837,96.00l 158.325,0.00 c 17.957,0.00, 32.512,14.556, 32.512,32.512L 512.00,414.98 C 512.00,432.935, 497.444,447.492, 479.488,447.492z M 448.00,160.00L 64.00,160.00 L 64.00,384.00 l 384.00,0.00 
			L 448.00,160.00 z"  />
<glyph unicode="&#xe012;" d="M 32.00,159.945c0.00,89.433, 72.30,160.016, 161.412,160.016l 111.022,0.00 L 304.434,415.945 l 175.497-175.972
		L 304.434,64.00l0.00,95.984 "  />
<glyph unicode="&#xe014;" d="M 480.00,320.00c0.00-89.433-72.30-160.016-161.412-160.016l-111.022,0.00 L 207.566,64.00 l-175.497,175.972
		l 175.497,175.973l0.00-95.986 "  />
<glyph unicode="&#xe013;" d="M 248.423,6.631c 34.224,0.00, 57.212,25.447, 57.212,59.518
	c-0.665,32.74-22.988,56.549-57.212,56.549c-33.068,0.00-56.546-23.81-56.546-56.876C 191.877,32.08, 214.862,6.631, 248.423,6.631z
	 M 289.099,156.26l0.00,11.739 c-0.661,29.442, 9.26,54.903, 33.735,81.684c 19.012,27.449, 48.939,60.188, 48.939,109.792
	c0.00,48.613-38.196,87.639-123.019,87.639c-46.955,0.00-86.645-10.754-110.453-21.993l 22.492-61.675c 17.196,11.739, 43.644,19.506, 65.477,19.506
	c 33.072-1.156, 48.283-16.203, 48.283-39.18c0.00-22.164-17.198-42.994-38.359-67.964c-19.515-35.218-30.10-69.111-28.112-102.508
	l 0.663-17.038L 289.099,156.26 z"  />
<glyph unicode="&#xe015;" d="M 96.889,447.111L 32.889,383.111L 96.889,383.111 zM 64.889,383.111L 96.889,383.111L 96.889,31.111L 64.889,31.111zM 96.889,63.111L 416.889,63.111L 416.889,31.111L 96.889,31.111zM 416.889-0.889L 416.889,63.111L 480.889,63.111 zM 128.889,319.111L 160.889,319.111L 160.889,287.111L 128.889,287.111zM 192.889,319.111L 224.889,319.111L 224.889,287.111L 192.889,287.111zM 256.889,319.111L 288.889,319.111L 288.889,287.111L 256.889,287.111zM 320.889,319.111L 352.889,319.111L 352.889,287.111L 320.889,287.111zM 320.889,255.111L 352.889,255.111L 352.889,223.111L 320.889,223.111zM 320.889,191.111L 352.889,191.111L 352.889,159.111L 320.889,159.111zM 320.889,127.111L 352.889,127.111L 352.889,95.111L 320.889,95.111z"  />
<glyph unicode="&#xe00e;" d="M 160.00,448.00l0.00-192.00 l 192.00,0.00 L 352.00,448.00 L 160.00,448.00 z M 192.00,320.00l 64.00,64.00l 64.00-64.00L 192.00,320.00 zM 160.00,224.00l0.00-192.00 l 192.00,0.00 L 352.00,224.00 L 160.00,224.00 z M 256.00,96.00l-64.00,64.00l 128.00,0.00 L 256.00,96.00zM 32.889,447.111L 64.889,447.111L 64.889,31.111L 32.889,31.111zM 448.889,447.111L 480.889,447.111L 480.889,31.111L 448.889,31.111z"  />
<glyph unicode="&#xe016;" d="M 416.889,223.111l 32.00,0.00 c0.00,106.039-85.963,192.00-192.00,192.00l0.00-32.00 C 345.255,383.111, 416.889,311.477, 416.889,223.111zM 96.889,223.111l-32.00,0.00 c0.00-106.037, 85.961-192.00, 192.00-192.00l0.00,32.00 C 168.523,63.111, 96.889,134.745, 96.889,223.111zM 256.889,447.111L 256.889,351.111L 192.889,399.111 zM 256.889-0.889L 256.889,95.111L 320.889,47.111 zM 224.889,223.111A32.00,32.00 180.00 1 1 288.889,223.111A32.00,32.00 180.00 1 1 224.889,223.111z"  />
<glyph unicode="&#xe017;" d="M 256.889,319.111c-128.00,0.00-224.00-128.00-224.00-128.00s 64.00-128.00, 224.00-128.00s 224.00,128.00, 224.00,128.00S 384.889,319.111, 256.889,319.111z M 256.889,127.111
			c-35.346,0.00-64.00,28.654-64.00,64.00c0.00,35.346, 28.654,64.00, 64.00,64.00c 35.346,0.00, 64.00-28.654, 64.00-64.00C 320.889,155.765, 292.235,127.111, 256.889,127.111zM 32.889,223.111c0.00,0.00, 96.00,128.00, 224.00,128.00s 224.00-128.00, 224.00-128.00s-64.00,160.00-224.00,160.00S 32.889,223.111, 32.889,223.111z"  />
<glyph unicode="&#xe018;" d="M 480.889,191.111L 256.889,415.111L 32.889,191.111L 128.889,191.111L 128.889,95.111L 384.889,95.111L 384.889,191.111 		zM 32.889,31.111L 96.889,95.111L 96.889,63.111L 416.889,63.111L 416.889,95.111L 480.889,31.111 z"  />
<glyph unicode="&#xe019;" d="M 480.889,255.111L 256.889,479.111L 32.889,255.111L 128.889,255.111L 128.889,159.111L 384.889,159.111L 384.889,255.111 		zM 32.889,95.111L 96.889,159.111L 96.889,127.111L 416.889,127.111L 416.889,159.111L 480.889,95.111 zM 64.889,63.111L 32.889,31.111L 480.889,31.111L 448.889,63.111 zM 64.889-0.889L 32.889-32.889L 480.889-32.889L 448.889-0.889 z"  />
<glyph unicode="&#xe01a;" d="M 384.889,255.111L 384.889,351.111L 128.889,351.111L 128.889,255.111L 32.889,255.111L 256.889,31.111L 480.889,255.111 		zM 480.889,415.111L 416.889,351.111L 416.889,383.111L 96.889,383.111L 96.889,351.111L 32.889,415.111 z"  />
<glyph unicode="&#xe01b;" d="M 384.889,191.111L 384.889,287.111L 128.889,287.111L 128.889,191.111L 32.889,191.111L 256.889-32.889L 480.889,191.111 		zM 480.889,351.111L 416.889,287.111L 416.889,319.111L 96.889,319.111L 96.889,287.111L 32.889,351.111 zM 448.889,383.111L 480.889,415.111L 32.889,415.111L 64.889,383.111 zM 448.889,447.111L 480.889,479.111L 32.889,479.111L 64.889,447.111 z"  />
<glyph unicode="&#xe01c;" d="M 256.889,415.111c-106.039,0.00-192.00-85.963-192.00-192.00
			c0.00-106.039, 85.961-192.00, 192.00-192.00c 106.037,0.00, 192.00,85.963, 192.00,192.00C 448.889,329.15, 362.926,415.111, 256.889,415.111z M 256.889,95.111
			c-70.69,0.00-128.00,57.307-128.00,128.00c0.00,70.692, 57.312,128.00, 128.00,128.00c 70.695,0.00, 128.00-57.31, 128.00-128.00C 384.889,152.418, 327.584,95.111, 256.889,95.111zM 128.667,34.549L 189.006,64.718L 98.498,155.228L 68.327,94.891 			zM 385.111,411.675L 324.772,381.504L 415.282,290.994L 445.451,351.333 			zM 32.889,180.444L 96.889,159.111L 96.889,287.111L 32.889,265.778 			zM 480.891,265.778L 416.889,287.111L 416.889,159.111L 480.891,180.444 
							zM 68.327,351.333L 98.496,290.994L 189.006,381.504L 128.667,411.673 			zM 445.451,94.889L 415.282,155.228L 324.772,64.718L 385.111,34.549 			zM 214.222,447.111L 192.889,383.111L 320.889,383.111L 299.556,447.111 			zM 299.556-0.889L 320.889,63.111L 192.889,63.111L 214.222-0.889 			
				z"  />
<glyph unicode="&#xe01d;" d="M 437.909,358.876L 392.652,404.132L 256.889,268.368L 121.124,404.132L 75.868,358.876L 211.634,223.111L 75.868,87.348L 121.125,42.092L 256.889,177.856L 392.654,42.092L 437.909,87.348L 302.146,223.111 		z"  />
<glyph unicode="&#xe01e;" d="M 416.00,480.00L 96.00,480.00L 32.00,480.00L 32.00,416.00L 32.00,32.00L 96.00,32.00L 96.00,416.00L 416.00,416.00 		zM 128.889,383.111l0.00-416.00 l 352.00,0.00 l0.00,416.00 L 128.889,383.111 z M 320.889,159.111l-128.00,0.00 l0.00,32.00 l 128.00,0.00 L 320.889,159.111 z
			 M 416.889,223.111l-224.00,0.00 l0.00,32.00 l 224.00,0.00 L 416.889,223.111 z M 416.889,287.111l-224.00,0.00 l0.00,32.00 l 224.00,0.00 L 416.889,287.111 z"  />
<glyph unicode="&#xe01f;" d="M 352.889,319.111l0.00,96.00 l-32.00,0.00 c0.00,35.346-28.654,64.00-64.00,64.00
				c-35.346,0.00-64.00-28.654-64.00-64.00l-32.00,0.00 l0.00-96.00 L 352.889,319.111 z M 256.889,447.111c 17.673,0.00, 32.00-14.327, 32.00-32.00s-14.327-32.00-32.00-32.00c-17.673,0.00-32.00,14.327-32.00,32.00
				S 239.216,447.111, 256.889,447.111zM 416.889,415.111l-32.00,0.00 l0.00-96.00 l0.00-32.00 l-256.00,0.00 l0.00,32.00 l0.00,96.00 l-32.00,0.00 
				c-17.673,0.00-32.00-14.327-32.00-32.00l0.00-384.00 c0.00-17.673, 14.327-32.00, 32.00-32.00l 320.00,0.00 c 17.673,0.00, 32.00,14.327, 32.00,32.00l0.00,384.00 C 448.889,400.784, 434.562,415.111, 416.889,415.111z"  />
<glyph unicode="&#xe021;" d="M0.00,448.00l0.00-448.00 l 512.00,0.00 L 512.00,448.00 L0.00,448.00 z M 480.00,32.00L 32.00,32.00 L 32.00,416.00 l 448.00,0.00 L 480.00,32.00 zM 96.889,383.111L 64.889,383.111L 64.889,255.111L 96.889,255.111L 96.889,351.111L 192.889,351.111L 192.889,383.111 		zM 416.889,159.111L 416.889,95.111L 352.889,95.111L 352.889,63.111L 416.889,63.111L 448.889,63.111L 448.889,159.111 		z"  />
<glyph unicode="&#xe022;" d="M 32.00,415.111L 480.00,415.111L 480.00,351.111L 32.00,351.111zM 32.889,318.222L 480.889,318.222L 480.889,254.222L 32.889,254.222zM 32.889,222.222L 480.889,222.222L 480.889,158.222L 32.889,158.222zM 32.889,126.222L 256.889,126.222L 256.889,62.222L 32.889,62.222zM 288.889,126.222L 352.889,126.222L 352.889,62.222L 288.889,62.222z"  />
<glyph unicode="&#xe023;" d="M 32.00,448.00l0.00-448.00 l 448.00,0.00 L 480.00,448.00 L 32.00,448.00 z M 448.00,32.00L 64.00,32.00 L 64.00,416.00 l 384.00,0.00 L 448.00,32.00 zM 86.292,76.923L 403.072,393.703L 425.70,371.076L 108.919,54.297zM 86.292,371.077L 108.917,393.703L 425.70,76.923L 403.072,54.297z"  />
<glyph unicode="&#xe020;" d="M 96.889,351.111L 32.889,287.111L 480.889,287.111L 416.889,351.111 zM 96.889,255.111L 32.889,191.111L 480.889,191.111L 416.889,255.111 zM 96.889,159.111L 32.889,95.111L 480.889,95.111L 416.889,159.111 z"  />
<glyph unicode="&#xe024;" d="M 469.925,292.332L 217.333,344.846L 296.444,101.374 		zM 388.555,41.892L 360.443,298.348L 153.335,147.874 		zM 125.225,41.89L 360.444,147.876L 153.333,298.347 		zM 43.852,292.331L 217.335,101.374L 296.443,344.846 		zM 256.889,447.111L 128.889,223.111L 384.889,223.111 		z"  />
<glyph unicode="&#xe025;" d="M 32.889,63.111L 96.889,63.111L 96.889-0.889L 32.889-0.889zM 32.889,447.111L 96.889,447.111L 96.889,95.111L 32.889,95.111zM 128.889,63.111L 480.889,63.111L 480.889-0.889L 128.889-0.889zM 128.889,127.111L 160.889,127.111L 160.889,95.111L 128.889,95.111zM 192.889,159.111L 224.889,159.111L 224.889,95.111L 192.889,95.111zM 256.889,127.111L 288.889,127.111L 288.889,95.111L 256.889,95.111zM 320.889,159.111L 352.889,159.111L 352.889,95.111L 320.889,95.111zM 384.889,127.111L 416.889,127.111L 416.889,95.111L 384.889,95.111zM 448.889,159.111L 480.889,159.111L 480.889,95.111L 448.889,95.111z"  />
<glyph unicode="&#xe026;" d="M 128.889,383.111L 480.889,383.111L 480.889,319.111L 128.889,319.111zM 128.889,255.111L 480.889,255.111L 480.889,191.111L 128.889,191.111zM 128.889,127.111L 480.889,127.111L 480.889,63.111L 128.889,63.111zM 32.889,255.111L 96.889,255.111L 96.889,191.111L 32.889,191.111zM 32.889,383.111L 96.889,383.111L 96.889,319.111L 32.889,319.111zM 32.889,127.111L 96.889,127.111L 96.889,63.111L 32.889,63.111z"  />
<glyph unicode="&#xe027;" d="M 480.00,448.00c0.00,32.00-32.00,32.00-32.00,32.00s-128.00,0.00-160.00,0.00s-32.00-32.00-32.00-32.00l0.00-64.00 l 224.00,0.00 C 480.00,384.00, 480.00,416.00, 480.00,448.00zM 224.00,352.00c0.00,0.00,0.00,64.00,0.00,96.00S 192.00,480.00, 192.00,480.00S 64.00,480.00, 32.00,480.00S0.00,448.00,0.00,448.00l0.00-96.00 l0.00-384.00 l 512.00,0.00 L 512.00,352.00 L 224.00,352.00 z M 480.00,0.00L 32.00,0.00 L 32.00,320.00 l 448.00,0.00 L 480.00,0.00 z"  />
<glyph unicode="&#xe028;" d="M0.00,384.00l0.00-320.00 l 512.00,0.00 L 512.00,384.00 L0.00,384.00 z M 480.00,96.00L 32.00,96.00 L 32.00,352.00 l 448.00,0.00 L 480.00,96.00 zM 64.00,320.00L 128.00,320.00L 128.00,128.00L 64.00,128.00z"  />
<glyph unicode="&#xe029;" d="M0.00,384.00L 448.00,384.00L 448.00,128.00L0.00,128.00zM 480.00,352.00L 480.00,96.00L 32.00,96.00L 32.00,64.00L 480.00,64.00L 512.00,64.00L 512.00,352.00 			z"  />
<glyph unicode="&#xe02a;" d="M 480.00,128.00c0.00-17.673-14.327-32.00-32.00-32.00L 64.00,96.00 c-17.673,0.00-32.00,14.327-32.00,32.00L 32.00,416.00 c0.00,17.673, 14.327,32.00, 32.00,32.00l 384.00,0.00 
	c 17.673,0.00, 32.00-14.327, 32.00-32.00L 480.00,128.00 zM 288.00,96.00 L 384.00,96.00 L 384.00,0.00 Z"  />
<glyph unicode="&#xe02b;" d="M 384.889,287.111c0.00,0.00,0.00,160.00-128.00,160.00s-128.00-160.00-128.00-160.00l-32.00,0.00 l0.00-256.00 l 320.00,0.00 l0.00,256.00 L 384.889,287.111 z M 192.889,287.111c0.00,0.00,0.00,96.00, 64.00,96.00
			s 64.00-96.00, 64.00-96.00L 192.889,287.111 z"  />
<glyph unicode="&#xe02c;" d="M 120.235,88.236c-24.994,24.994-24.994,65.516,0.00,90.51l 78.37,78.37
		c-42.697,11.394-90.13,0.379-123.627-33.116c-49.988-49.986-49.988-131.031,0.00-181.02c 49.988-49.986, 131.031-49.986, 181.02,0.004
		c 33.493,33.493, 44.51,80.926, 33.115,123.625l-78.37-78.372C 185.751,63.243, 145.228,63.243, 120.235,88.236zM 256.00,405.019c-33.495-33.495-44.51-80.928-33.116-123.625l 78.37,78.372
		c 24.994,24.994, 65.518,24.994, 90.51,0.00c 24.994-24.994, 24.994-65.516,0.00-90.51l-78.372-78.37
		c 42.699-11.392, 90.132-0.38, 123.625,33.115c 49.989,49.988, 49.989,131.033,0.00,181.02C 387.031,455.006, 305.986,455.006, 256.00,405.019zM 142.862,110.864c 12.496-12.496, 32.757-12.496, 45.255,0.00l 181.019,181.019c 12.496,12.498, 12.496,32.759,0.00,45.255
		s-32.757,12.496-45.253,0.00L 142.862,156.117C 130.366,143.621, 130.366,123.362, 142.862,110.864z"  />
<glyph unicode="&#xe02d;" d="M 128.00,32.00L 384.00,32.00L 384.00,0.00L 128.00,0.00zM 128.00,96.00L 384.00,96.00L 384.00,64.00L 128.00,64.00zM 128.00,160.00L 384.00,160.00L 384.00,128.00L 128.00,128.00zM 128.00,224.00L 384.00,224.00L 384.00,192.00L 128.00,192.00zM 128.00,288.00L 384.00,288.00L 384.00,256.00L 128.00,256.00zM 128.00,352.00L 384.00,352.00L 384.00,320.00L 128.00,320.00zM 128.00,416.00L 384.00,416.00L 384.00,384.00L 128.00,384.00zM 128.00,480.00L 384.00,480.00L 384.00,448.00L 128.00,448.00z"  />
<glyph unicode="&#xe02e;" d="M 240.00,480.00C 107.451,480.00,0.00,372.549,0.00,240.00s 107.451-240.00, 240.00-240.00s 240.00,107.451, 240.00,240.00S 372.549,480.00, 240.00,480.00z M 256.00,32.606L 256.00,96.00 
	l-32.00,0.00 l0.00-63.394 C 121.883,40.375, 40.375,121.883, 32.606,224.00L 96.00,224.00 l0.00,32.00 L 32.606,256.00 C 40.375,358.117, 121.883,439.625, 224.00,447.394L 224.00,384.00 l 32.00,0.00 L 256.00,447.394 
	C 358.117,439.625, 439.625,358.117, 447.394,256.00L 384.00,256.00 l0.00-32.00 l 63.394,0.00 C 439.625,121.883, 358.117,40.375, 256.00,32.606z"  />
<glyph unicode="&#xe02f;" d="M0.00,480.00l0.00-512.00 l 512.00,0.00 L 512.00,480.00 L0.00,480.00 z M 352.00,0.00L 32.00,0.00 L 32.00,448.00 l 320.00,0.00 L 352.00,0.00 zM 288.00,416.00L 320.00,416.00L 320.00,32.00L 288.00,32.00z"  />
<glyph unicode="&#xe030;" d="M 493.588,337.138L 267.312,110.862L 199.431,42.981L 131.548,110.862L 18.411,223.998L 86.293,291.883L 199.431,178.745L 425.701,405.019 z"  />
<glyph unicode="&#x20;" horiz-adv-x="256" />
<glyph class="hidden" unicode="&#xf000;" d="M0,480L 512 -32L0 -32 z" horiz-adv-x="0" />
</font>
</defs>
</svg>
