<?xml version="1.0" encoding="utf-8"?>
<!DOCTYPE svg PUBLIC "-//W3C//DTD SVG 1.1//EN" "http://www.w3.org/Graphics/SVG/1.1/DTD/svg11.dtd">
<svg version="1.1" id="Layer_1" xmlns="http://www.w3.org/2000/svg" xmlns:xlink="http://www.w3.org/1999/xlink" x="0px" y="0px" width="100%" height="100%" viewBox="0 0 661.46 362.739" xml:space="preserve">
<path fill="#29b471" d="M413.46,179.479c-0.86,0.53-1.729,1.062-2.602,1.58c-0.17,0.101-0.33,0.21-0.5,0.311h-0.01
	C253.49,144.83,0,0.001,0,0.001c0,40.818,7.39,79.898,20.92,116c0,0,136.88,51.199,264.97,90.068
	C172.42,193.7,43.311,160.649,41.3,160.14c18.06,32.6,41.47,61.811,69.05,86.47c0,0,95.062,12.812,153.881,16.04
	c-49.121,0.91-128.521,4.5-128.521,4.5c16.689,12.2,34.56,22.88,53.42,31.83c-66.05,30.35-107.69,45.25-107.69,45.25
	c34.211,11.97,70.99,18.51,109.291,18.51c126.021,0,240.389-38.06,324.84-100.09c0.41-0.309,0.879-0.66,1.4-1.029
	c11.647-8.329,48.6-29.641,48.6-6.351c3.51-14.62,4.209-27.37,2.65-38.38c-9.33-65.65-99.191-69.49-153.701-38.04
	c55.43-32.39,143.09-33.04,170.801,19.15c48.17-56.909,76.14-124.909,76.14-198c-82.12,70.979-167.971,130.631-247.682,179.279
	C413.67,179.351,413.569,179.41,413.46,179.479z"/>
</svg>
